<?xml version="1.0" encoding="utf-8" standalone="no"?>
<!DOCTYPE svg PUBLIC "-//W3C//DTD SVG 1.1//EN"
  "http://www.w3.org/Graphics/SVG/1.1/DTD/svg11.dtd">
<svg xmlns:xlink="http://www.w3.org/1999/xlink" width="576pt" height="648pt" viewBox="0 0 576 648" xmlns="http://www.w3.org/2000/svg" version="1.1">
 <metadata>
  <rdf:RDF xmlns:dc="http://purl.org/dc/elements/1.1/" xmlns:cc="http://creativecommons.org/ns#" xmlns:rdf="http://www.w3.org/1999/02/22-rdf-syntax-ns#">
   <cc:Work>
    <dc:type rdf:resource="http://purl.org/dc/dcmitype/StillImage"/>
    <dc:date>2026-09-14T07:00:52.200260</dc:date>
    <dc:format>image/svg+xml</dc:format>
    <dc:creator>
     <cc:Agent>
      <dc:title>Matplotlib v3.11.2, https://matplotlib.org/</dc:title>
     </cc:Agent>
    </dc:creator>
   </cc:Work>
  </rdf:RDF>
 </metadata>
 <defs>
  <style type="text/css">*{stroke-linejoin: round; stroke-linecap: butt}</style>
 </defs>
 <g id="figure_1">
  <g id="patch_1">
   <path d="M 0 648 
L 576 648 
L 576 0 
L 0 0 
z
" style="fill: #fffdf8"/>
  </g>
  <g id="axes_1">
   <g id="patch_2">
    <path d="M 40.896 325.296 
L 535.104 325.296 
Q 545.472 325.296 545.472 313.632 
L 545.472 84.888 
Q 545.472 73.224 535.104 73.224 
L 40.896 73.224 
Q 30.528 73.224 30.528 84.888 
L 30.528 313.632 
Q 30.528 325.296 40.896 325.296 
z
" clip-path="url(#pe0156d6eb8)" style="fill: #e5f0ef"/>
   </g>
   <g id="patch_3">
    <path d="M 71.123203 195.048 
Q 89.282989 195.048 105.765723 195.048 
" clip-path="url(#pe0156d6eb8)" style="fill: none; stroke: #67777c; stroke-width: 1.5; stroke-linecap: round"/>
    <path d="M 98.565723 191.448 
L 105.765723 195.048 
L 98.565723 198.648 
z
" clip-path="url(#pe0156d6eb8)" style="fill: #67777c; stroke: #67777c; stroke-width: 1.5; stroke-linecap: round"/>
   </g>
   <g id="patch_4">
    <path d="M 71.123203 281.88 
Q 89.282989 281.88 105.765723 281.88 
" clip-path="url(#pe0156d6eb8)" style="fill: none; stroke: #67777c; stroke-width: 1.5; stroke-linecap: round"/>
    <path d="M 98.565723 278.28 
L 105.765723 281.88 
L 98.565723 285.48 
z
" clip-path="url(#pe0156d6eb8)" style="fill: #67777c; stroke: #67777c; stroke-width: 1.5; stroke-linecap: round"/>
   </g>
   <g id="patch_5">
    <path d="M 40.896 581.256 
L 535.104 581.256 
Q 545.472 581.256 545.472 569.592 
L 545.472 363.528 
Q 545.472 351.864 535.104 351.864 
L 40.896 351.864 
Q 30.528 351.864 30.528 363.528 
L 30.528 569.592 
Q 30.528 581.256 40.896 581.256 
z
" clip-path="url(#pe0156d6eb8)" style="fill: #fae9df"/>
   </g>
   <g id="patch_6">
    <path d="M 169.043643 488.592 
Q 313.922381 488.592 457.124069 488.592 
" clip-path="url(#pe0156d6eb8)" style="fill: none; stroke: #bf5a3d; stroke-width: 1.5; stroke-linecap: round"/>
    <path d="M 449.924069 484.992 
L 457.124069 488.592 
L 449.924069 492.192 
z
" clip-path="url(#pe0156d6eb8)" style="fill: #bf5a3d; stroke: #bf5a3d; stroke-width: 1.5; stroke-linecap: round"/>
   </g>
   <g id="line2d_1">
    <path d="M 167.04 437.4 
L 334.08 437.4 
" clip-path="url(#pe0156d6eb8)" style="fill: none; stroke: #bf5a3d; stroke-width: 3; stroke-linecap: square"/>
   </g>
   <g id="text_1">
    <text style="font-weight: 700; font-size: 25px; font-family: 'Hiragino Sans GB'; text-anchor: start; fill: #243640" x="40.32" y="56.343828" transform="rotate(-0 40.32 56.343828)">路标和计时器，也得检查</text>
   </g>
   <g id="text_2">
    <text style="font-weight: 700; font-size: 19px; font-family: 'Hiragino Sans GB'; text-anchor: start; fill: #243640" x="57.6" y="128.793609" transform="rotate(-0 57.6 128.793609)">同一段历史，改一句状态提示</text>
   </g>
   <g id="text_3">
    <text style="font-size: 16px; font-family: 'Hiragino Sans GB'; text-anchor: start; fill: #243640" x="57.6" y="170.017" transform="rotate(-0 57.6 170.017)">旧：No deliver yet</text>
   </g>
   <g id="text_4">
    <text style="font-size: 18px; font-family: 'Hiragino Sans GB'; text-anchor: start; fill: #bf5a3d" x="132.48" y="201.869719" transform="rotate(-0 132.48 201.869719)">模型继续等待</text>
   </g>
   <g id="text_5">
    <text style="font-size: 15px; font-family: 'Hiragino Sans GB'; text-anchor: start; fill: #243640" x="57.6" y="259.228266" transform="rotate(-0 57.6 259.228266)">新：只是未记录交付，准备好即可交付</text>
   </g>
   <g id="text_6">
    <text style="font-size: 18px; font-family: 'Hiragino Sans GB'; text-anchor: start; fill: #16756f" x="132.48" y="288.701719" transform="rotate(-0 132.48 288.701719)">模型调用交付工具</text>
   </g>
   <g id="text_7">
    <text style="font-weight: 700; font-size: 19px; font-family: 'Hiragino Sans GB'; text-anchor: start; fill: #243640" x="57.6" y="406.395891" transform="rotate(-0 57.6 406.395891)">Docker 客户端超时之后</text>
   </g>
   <g id="text_8">
    <text style="font-size: 15px; font-family: 'Hiragino Sans GB'; text-anchor: start; fill: #243640" x="57.6" y="446.137031" transform="rotate(-0 57.6 446.137031)">客户端</text>
   </g>
   <g id="text_9">
    <text style="font-size: 16px; font-family: 'Hiragino Sans GB'; text-anchor: start; fill: #bf5a3d" x="368.64" y="443.46375" transform="rotate(-0 368.64 443.46375)">已超时</text>
   </g>
   <g id="text_10">
    <text style="font-size: 15px; font-family: 'Hiragino Sans GB'; text-anchor: start; fill: #243640" x="57.6" y="497.397" transform="rotate(-0 57.6 497.397)">容器</text>
   </g>
   <g id="text_11">
    <text style="font-size: 16px; font-family: 'Hiragino Sans GB'; text-anchor: start; fill: #bf5a3d" x="270.72" y="530.424" transform="rotate(-0 270.72 530.424)">仍在运行</text>
   </g>
   <g id="text_12">
    <text style="font-weight: 700; font-size: 14px; font-family: 'Hiragino Sans GB'; text-anchor: start; fill: #243640" x="57.6" y="562.250344" transform="rotate(-0 57.6 562.250344)">看到部分测试通过 ≠ 整套验收已经完成</text>
   </g>
   <g id="text_13">
    <text style="font-size: 12px; font-family: 'Hiragino Sans GB'; text-anchor: start; fill: #67777c" x="40.32" y="615.887438" transform="rotate(-0 40.32 615.887438)">上：仅一对响应诊断，没有执行返回的工具。</text>
   </g>
   <g id="text_14">
    <text style="font-size: 12px; font-family: 'Hiragino Sans GB'; text-anchor: start; fill: #67777c" x="40.32" y="637.943813" transform="rotate(-0 40.32 637.943813)">下：四条超时记录；卡住原因未由此确定。</text>
   </g>
  </g>
 </g>
 <defs>
  <clipPath id="pe0156d6eb8">
   <rect x="0" y="0" width="576" height="648"/>
  </clipPath>
 </defs>
</svg>
